<?xml version="1.0" encoding="utf-8"?>
<!-- Generator: Adobe Illustrator 24.3.0, SVG Export Plug-In . SVG Version: 6.00 Build 0)  -->
<svg version="1.1" id="Calque_1" xmlns="http://www.w3.org/2000/svg" xmlns:xlink="http://www.w3.org/1999/xlink" x="0px" y="0px"
	 viewBox="0 0 18 15" style="enable-background:new 0 0 18 15;" xml:space="preserve">
<path d="M0.1,13.2V8.5h1.2v4.7c0,0.3,0.2,0.5,0.5,0.5h14.6c0.3,0,0.5-0.2,0.5-0.5V8.5H18v4.7c0,1-0.8,1.8-1.7,1.8H1.7
	C0.8,14.9,0.1,14.2,0.1,13.2z"/>
<path d="M9.5,8.3l1.5-1.4l0.8,0.9l-2.6,2.4l0,0l0,0c-0.1,0.1-0.2,0.1-0.4,0.1c-0.1,0-0.3,0-0.4-0.1L5.8,7.8l0.8-0.9
	l1.6,1.5l0.1,0.1V8.3V0h1.2L9.5,8.3L9.5,8.3L9.5,8.3z"/>
</svg>
