<?xml version="1.0" encoding="utf-8"?>
<!-- Generator: Adobe Illustrator 24.0.0, SVG Export Plug-In . SVG Version: 6.00 Build 0)  -->
<svg version="1.1" id="Calque_1" xmlns="http://www.w3.org/2000/svg" xmlns:xlink="http://www.w3.org/1999/xlink" x="0px" y="0px"
	 viewBox="0 0 27.1 19.8" style="enable-background:new 0 0 27.1 19.8;" xml:space="preserve">
<path d="M26.1,0.1c-0.1,0-0.1,0-0.2-0.1c-0.1,0-0.2,0-0.3,0c0,0,0,0,0,0H1.5c0,0,0,0,0,0C1.4,0,1.3,0,1.2,0c-0.1,0-0.1,0-0.1,0
	C0.4,0.3,0,0.9,0,1.6v16.7c0,0.7,0.4,1.2,1,1.5c0.1,0,0.1,0,0.2,0.1c0.1,0,0.2,0,0.3,0h0h24h0.1c0.1,0,0.2,0,0.4,0c0,0,0,0,0,0
	c0.7-0.2,1.1-0.8,1.1-1.5V1.6C27.1,0.9,26.7,0.3,26.1,0.1z M17.8,9.9l8.3-8.2v16.4L17.8,9.9z M1,18.1V1.7l8.3,8.2L1,18.1z M1.7,1
	h23.7L14,12.3c-0.1,0.1-0.2,0.2-0.4,0.2h0c-0.1,0-0.3-0.1-0.4-0.2L1.7,1z M1.7,18.8l8.3-8.3l2.5,2.4c0.3,0.3,0.7,0.5,1.1,0.5
	c0,0,0,0,0,0c0.4,0,0.8-0.2,1.1-0.5l2.4-2.4l8.3,8.2H1.7z"/>
</svg>
