<?xml version="1.0" encoding="utf-8"?>
<!-- Generator: Adobe Illustrator 25.0.0, SVG Export Plug-In . SVG Version: 6.00 Build 0)  -->
<svg version="1.1" id="Calque_1" xmlns="http://www.w3.org/2000/svg" xmlns:xlink="http://www.w3.org/1999/xlink" x="0px" y="0px"
	 viewBox="0 0 20 20" style="enable-background:new 0 0 20 20;" xml:space="preserve">
<path d="M19.7,18.3L16,14.6c1.2-1.5,2-3.5,2-5.6c0-5-4-9-9-9C4,0,0,4,0,9c0,5,4,9,9,9c2.1,0,4.1-0.7,5.6-2l3.7,3.7
	c0.2,0.2,0.5,0.3,0.7,0.3s0.5-0.1,0.7-0.3C20.1,19.3,20.1,18.7,19.7,18.3z M2,9c0-3.9,3.1-7,7-7c3.9,0,7,3.1,7,7
	c0,1.9-0.8,3.7-2,4.9c0,0,0,0,0,0s0,0,0,0c-1.3,1.3-3,2-4.9,2C5.1,16,2,12.9,2,9z"/>
</svg>
